# xmcd CD database file
#
# Track frame offsets:
#	150
#	15442
#	30705
#	52542
#	66952
#	78322
#	101322
#	114085
#	130430
#	142625
#	157500
#	172352
#
# Disc length: 2422 seconds
#
# Revision: 0
# Processed by: cddbd v1.4PL0 Copyright (c) Steve Scherf et al.
# Submitted via: CDex 1.40Beta9
#
DISCID=8209740c
DTITLE=Larsen's Last Chance - Larsen's Last Chance
DYEAR=1994
DGENRE=Blues
TTITLE0=No Matter Who You Are
TTITLE1=Nosey Neighbours
TTITLE2=Dark Season Moods
TTITLE3=It Should've Been Me
TTITLE4=Where Were You Last Night
TTITLE5=Blues For Red
TTITLE6=You Got To Move
TTITLE7=I Want You To Be My Baby
TTITLE8=Always Thinkin' Of You
TTITLE9=Money. That's Your Honey
TTITLE10=Spider
TTITLE11=Last Chance
EXTD=YEAR: 1994 ID3G: 0
EXTT0=
EXTT1=
EXTT2=
EXTT3=
EXTT4=
EXTT5=
EXTT6=
EXTT7=
EXTT8=
EXTT9=
EXTT10=
EXTT11=
PLAYORDER=
